<svg aria-hidden="true" style="width:0;height:0;position:absolute;overflow:hidden" xmlns="http://www.w3.org/2000/svg"><defs><symbol id="icon-film" viewBox="0 0 31 32"><path fill="none" stroke="#fff" style="stroke:var(--color1,#fff)" stroke-linejoin="round" stroke-linecap="round" stroke-width="1.561" d="M25.783 2.992H5.438a2.836 2.836 0 0 0-2.836 2.836v20.345a2.836 2.836 0 0 0 2.836 2.836h20.345a2.836 2.836 0 0 0 2.836-2.836V5.828a2.836 2.836 0 0 0-2.836-2.836zM9.105 2.992v26.016M22.114 2.992v26.016M2.601 16h26.016M2.602 9.496h6.504M2.602 22.504h6.504M22.114 22.504h6.504M22.114 9.496h6.504"/></symbol><symbol id="icon-search-2" viewBox="0 0 32 32"><path stroke-linejoin="round" stroke-linecap="round" stroke-width="2" d="M14.667 25.333c5.891 0 10.667-4.776 10.667-10.667S20.558 3.999 14.667 3.999 4 8.775 4 14.666s4.776 10.667 10.667 10.667zM27.999 27.999l-5.8-5.8"/></symbol><symbol id="icon-search" viewBox="0 0 32 32"><path d="m31.008 27.231-7.58-6.447c-.784-.705-1.622-1.029-2.299-.998a11.954 11.954 0 0 0 2.87-7.787c0-6.627-5.373-12-12-12s-12 5.373-12 12 5.373 12 12 12c2.972 0 5.691-1.081 7.787-2.87-.031.677.293 1.515.998 2.299l6.447 7.58c1.104 1.226 2.907 1.33 4.007.23s.997-2.903-.23-4.007zM12 20a8 8 0 1 1 0-16 8 8 0 0 1 0 16z"/></symbol><symbol id="icon-heart" viewBox="0 0 34 32"><path d="m17.231 31.705-2.412-2.412C5.859 21.367.001 16.025.001 9.478.001 4.136 4.136.001 9.478.001c2.929 0 5.858 1.378 7.754 3.618 1.895-2.24 4.825-3.618 7.754-3.618 5.342 0 9.477 4.135 9.477 9.477 0 6.548-5.858 11.889-14.818 19.815l-2.412 2.412z"/><symbol id="icon-sun" viewBox="0 0 32 32"><path d="M11.678.033a.386.386 0 0 0-.113.1l-.053.07-.02 3.643c-.023 4.027-.033 3.757.135 3.845a.298.298 0 0 0 .158.027c.043-.008.453-.22.91-.475l.83-.46.955-.018c.688-.013.977-.027 1.033-.05a.27.27 0 0 0 .162-.247c0-.065-.395-.76-1.815-3.195-1.115-1.91-1.848-3.143-1.9-3.192-.09-.085-.18-.102-.283-.048zM24.008 1.667c-.08.048-5.11 5.02-5.188 5.133a.264.264 0 0 0 .025.325c.06.07.155.1.992.34l.925.265.7.672c.707.68.782.738.918.705a.326.326 0 0 0 .192-.178c.025-.068.095-.322.902-3.405.223-.845.515-1.962.652-2.485.3-1.137.305-1.155.258-1.242-.082-.16-.23-.21-.378-.13zM1.782 7.625c-.155.095-.195.22-.113.367.045.08 5.018 5.11 5.13 5.188a.264.264 0 0 0 .325-.025c.067-.06.103-.158.343-.995l.265-.93.672-.695c.678-.705.735-.78.703-.915a.33.33 0 0 0-.178-.193 30.519 30.519 0 0 0-.968-.262c-4.835-1.27-5.938-1.558-6.027-1.572a.206.206 0 0 0-.153.032zM15.185 8.027c-2.568.248-4.94 1.822-6.207 4.113a8.193 8.193 0 0 0-.915 2.81c-.055.4-.077 1.33-.04 1.748a7.985 7.985 0 0 0 2.133 4.768c1.335 1.435 3.05 2.288 5.02 2.497.393.043 1.22.047 1.607.012 2.598-.247 4.965-1.808 6.24-4.115a8.193 8.193 0 0 0 .915-2.81c.055-.4.078-1.33.04-1.748a8.011 8.011 0 0 0-2.163-4.803c-1.32-1.405-3.038-2.252-4.99-2.463-.36-.04-1.287-.045-1.64-.01zM24.41 11.52a.28.28 0 0 0-.128.277c.008.037.223.443.475.898l.46.83.017.955c.012.688.027.977.05 1.033a.27.27 0 0 0 .247.162c.065 0 .76-.395 3.195-1.815 1.99-1.16 3.14-1.845 3.195-1.902.073-.078.083-.1.07-.188a.285.285 0 0 0-.203-.242c-.045-.012-1.545-.03-3.69-.037-3.53-.018-3.615-.015-3.69.03zM3.272 18.14C1.282 19.3.132 19.985.077 20.042c-.072.078-.083.1-.07.188.015.117.092.21.203.242.045.012 1.545.03 3.683.04 3.258.015 3.61.012 3.68-.025a.276.276 0 0 0 .145-.273c-.008-.043-.22-.453-.475-.91l-.46-.83-.018-.955c-.013-.688-.027-.977-.05-1.032a.271.271 0 0 0-.247-.163c-.065 0-.76.395-3.195 1.815zM24.875 18.843c-.067.063-.1.157-.34.997l-.265.925-.672.7c-.68.705-.738.78-.705.915.02.075.098.16.177.192.067.025.323.095 3.405.902.845.223 1.962.515 2.485.652 1.137.3 1.155.305 1.242.258.16-.082.21-.23.13-.378-.047-.08-5.02-5.11-5.133-5.188a.267.267 0 0 0-.325.023zM9.613 22.892c-.068.017-.152.098-.185.177-.025.067-.095.323-.902 3.405-.223.845-.515 1.962-.652 2.485-.3 1.137-.305 1.155-.258 1.242.082.16.23.21.378.128.08-.045 5.11-5.017 5.187-5.13a.267.267 0 0 0-.023-.325c-.063-.067-.158-.1-.998-.34l-.928-.265-.672-.65c-.37-.358-.695-.665-.723-.683a.333.333 0 0 0-.225-.045zM20.1 24.32l-.863.473-.775.427-.95.017c-.683.012-.97.025-1.025.047a.271.271 0 0 0-.163.247c0 .065.395.76 1.815 3.195 1.163 1.992 1.845 3.14 1.902 3.195.078.073.1.082.188.07a.285.285 0 0 0 .242-.203c.012-.045.03-1.545.04-3.683.017-3.977.027-3.71-.137-3.795-.095-.05-.17-.047-.275.008z"/></symbol><symbol id="icon-moon" viewBox="0 0 26 32"><path d="M15.037.028c-1.85.115-3.672.547-5.362 1.272-.71.302-2.043 1.017-2.463 1.32l-.478.34c-.447.315-.915.688-1.303 1.03-.407.36-.938.86-.995.938a7.248 7.248 0 0 1-.287.327 15.967 15.967 0 0 0-4.06 12.42 15.914 15.914 0 0 0 4.588 9.622 15.898 15.898 0 0 0 5.787 3.715c1.015.378 2.162.67 3.26.825.853.12 1.275.148 2.25.148.935.003 1.298-.02 2.025-.113.212-.027.455-.058.538-.063.082-.008.302-.047.488-.087 1.768-.4 2.742-.733 4.063-1.385a14.84 14.84 0 0 0 2.5-1.53c.652-.49.712-.558.593-.677-.043-.043-.108-.05-.582-.063-4.355-.128-8.465-2.098-11.363-5.442-2.96-3.42-4.293-8.015-3.633-12.525.545-3.735 2.422-7.135 5.31-9.623.29-.25.288-.245.288-.33 0-.13-.055-.147-.465-.145a20.44 20.44 0 0 0-.697.025z"/></symbol></symbol></defs></svg>