<svg aria-hidden="true" style="position: absolute; width: 0; height: 0; overflow: hidden;" version="1.1" xmlns="http://www.w3.org/2000/svg" xmlns:xlink="http://www.w3.org/1999/xlink">
<defs>
<symbol id="icon-film" viewBox="0 0 31 32">
<path fill="none" stroke="#fff" style="stroke: var(--color1, #fff)" stroke-linejoin="round" stroke-linecap="round" stroke-miterlimit="4" stroke-width="1.561" d="M25.783 2.992h-20.345c-1.566 0-2.836 1.27-2.836 2.836v20.345c0 1.566 1.27 2.836 2.836 2.836h20.345c1.566 0 2.836-1.27 2.836-2.836v-20.345c0-1.566-1.27-2.836-2.836-2.836z"></path>
<path fill="none" stroke="#fff" style="stroke: var(--color1, #fff)" stroke-linejoin="round" stroke-linecap="round" stroke-miterlimit="4" stroke-width="1.561" d="M9.105 2.992v26.016"></path>
<path fill="none" stroke="#fff" style="stroke: var(--color1, #fff)" stroke-linejoin="round" stroke-linecap="round" stroke-miterlimit="4" stroke-width="1.561" d="M22.114 2.992v26.016"></path>
<path fill="none" stroke="#fff" style="stroke: var(--color1, #fff)" stroke-linejoin="round" stroke-linecap="round" stroke-miterlimit="4" stroke-width="1.561" d="M2.601 16h26.016"></path>
<path fill="none" stroke="#fff" style="stroke: var(--color1, #fff)" stroke-linejoin="round" stroke-linecap="round" stroke-miterlimit="4" stroke-width="1.561" d="M2.602 9.496h6.504"></path>
<path fill="none" stroke="#fff" style="stroke: var(--color1, #fff)" stroke-linejoin="round" stroke-linecap="round" stroke-miterlimit="4" stroke-width="1.561" d="M2.602 22.504h6.504"></path>
<path fill="none" stroke="#fff" style="stroke: var(--color1, #fff)" stroke-linejoin="round" stroke-linecap="round" stroke-miterlimit="4" stroke-width="1.561" d="M22.114 22.504h6.504"></path>
<path fill="none" stroke="#fff" style="stroke: var(--color1, #fff)" stroke-linejoin="round" stroke-linecap="round" stroke-miterlimit="4" stroke-width="1.561" d="M22.114 9.496h6.504"></path>
</symbol>
<symbol id="icon-search-2" viewBox="0 0 32 32">
<path stroke-linejoin="round" stroke-linecap="round" stroke-miterlimit="4" stroke-width="2" d="M14.667 25.333c5.891 0 10.667-4.776 10.667-10.667s-4.776-10.667-10.667-10.667c-5.891 0-10.667 4.776-10.667 10.667s4.776 10.667 10.667 10.667z"></path>
<path stroke-linejoin="round" stroke-linecap="round" stroke-miterlimit="4" stroke-width="2" d="M27.999 27.999l-5.8-5.8"></path>
</symbol>
<symbol id="icon-search" viewBox="0 0 32 32">
<path d="M31.008 27.231l-7.58-6.447c-0.784-0.705-1.622-1.029-2.299-0.998 1.789-2.096 2.87-4.815 2.87-7.787 0-6.627-5.373-12-12-12s-12 5.373-12 12 5.373 12 12 12c2.972 0 5.691-1.081 7.787-2.87-0.031 0.677 0.293 1.515 0.998 2.299l6.447 7.58c1.104 1.226 2.907 1.33 4.007 0.23s0.997-2.903-0.23-4.007zM12 20c-4.418 0-8-3.582-8-8s3.582-8 8-8 8 3.582 8 8-3.582 8-8 8z"></path>
</symbol>
<symbol id="icon-heart" viewBox="0 0 34 32">
<path d="M17.231 31.705l-2.412-2.412c-8.96-7.926-14.818-13.268-14.818-19.815 0-5.342 4.135-9.477 9.477-9.477 2.929 0 5.858 1.378 7.754 3.618 1.895-2.24 4.825-3.618 7.754-3.618 5.342 0 9.477 4.135 9.477 9.477 0 6.548-5.858 11.889-14.818 19.815l-2.412 2.412z"></path>
<symbol id="icon-sun" viewBox="0 0 32 32">
<path d="M11.678 0.033c-0.033 0.015-0.085 0.063-0.113 0.1l-0.053 0.070-0.020 3.643c-0.023 4.027-0.033 3.757 0.135 3.845 0.047 0.022 0.113 0.035 0.158 0.027 0.043-0.008 0.453-0.22 0.91-0.475l0.83-0.46 0.955-0.018c0.688-0.013 0.977-0.027 1.033-0.050 0.098-0.043 0.162-0.14 0.162-0.247 0-0.065-0.395-0.76-1.815-3.195-1.115-1.91-1.848-3.143-1.9-3.192-0.090-0.085-0.18-0.102-0.283-0.048z"></path>
<path d="M24.008 1.667c-0.080 0.048-5.11 5.020-5.188 5.133-0.067 0.098-0.058 0.235 0.025 0.325 0.060 0.070 0.155 0.1 0.992 0.34l0.925 0.265 0.7 0.672c0.707 0.68 0.782 0.738 0.918 0.705 0.075-0.020 0.16-0.098 0.192-0.178 0.025-0.068 0.095-0.322 0.902-3.405 0.223-0.845 0.515-1.962 0.652-2.485 0.3-1.137 0.305-1.155 0.258-1.242-0.082-0.16-0.23-0.21-0.378-0.13z"></path>
<path d="M1.782 7.625c-0.155 0.095-0.195 0.22-0.113 0.367 0.045 0.080 5.018 5.11 5.13 5.188 0.098 0.068 0.235 0.057 0.325-0.025 0.067-0.060 0.103-0.158 0.343-0.995l0.265-0.93 0.672-0.695c0.678-0.705 0.735-0.78 0.703-0.915-0.020-0.075-0.098-0.16-0.178-0.193-0.037-0.015-0.473-0.133-0.968-0.262-4.835-1.27-5.938-1.558-6.027-1.572-0.050-0.010-0.103 0-0.153 0.032z"></path>
<path d="M15.185 8.027c-2.568 0.248-4.94 1.822-6.207 4.113-0.457 0.825-0.777 1.808-0.915 2.81-0.055 0.4-0.077 1.33-0.040 1.748 0.158 1.788 0.9 3.445 2.133 4.768 1.335 1.435 3.050 2.288 5.020 2.497 0.393 0.043 1.22 0.047 1.607 0.012 2.598-0.247 4.965-1.808 6.24-4.115 0.457-0.825 0.777-1.808 0.915-2.81 0.055-0.4 0.078-1.33 0.040-1.748-0.16-1.803-0.91-3.465-2.163-4.803-1.32-1.405-3.038-2.252-4.99-2.463-0.36-0.040-1.287-0.045-1.64-0.010z"></path>
<path d="M24.41 11.52c-0.093 0.057-0.148 0.178-0.128 0.277 0.008 0.037 0.223 0.443 0.475 0.898l0.46 0.83 0.017 0.955c0.012 0.688 0.027 0.977 0.050 1.033 0.043 0.098 0.14 0.162 0.247 0.162 0.065 0 0.76-0.395 3.195-1.815 1.99-1.16 3.14-1.845 3.195-1.902 0.073-0.078 0.083-0.1 0.070-0.188-0.015-0.117-0.093-0.21-0.203-0.242-0.045-0.012-1.545-0.030-3.69-0.037-3.53-0.018-3.615-0.015-3.69 0.030z"></path>
<path d="M3.272 18.14c-1.99 1.16-3.14 1.845-3.195 1.902-0.072 0.078-0.083 0.1-0.070 0.188 0.015 0.117 0.092 0.21 0.203 0.242 0.045 0.012 1.545 0.030 3.683 0.040 3.258 0.015 3.61 0.012 3.68-0.025 0.098-0.050 0.162-0.17 0.145-0.273-0.008-0.043-0.22-0.453-0.475-0.91l-0.46-0.83-0.018-0.955c-0.013-0.688-0.027-0.977-0.050-1.032-0.043-0.098-0.14-0.163-0.247-0.163-0.065 0-0.76 0.395-3.195 1.815z"></path>
<path d="M24.875 18.843c-0.067 0.063-0.1 0.157-0.34 0.997l-0.265 0.925-0.672 0.7c-0.68 0.705-0.738 0.78-0.705 0.915 0.020 0.075 0.098 0.16 0.177 0.192 0.067 0.025 0.323 0.095 3.405 0.902 0.845 0.223 1.962 0.515 2.485 0.652 1.137 0.3 1.155 0.305 1.242 0.258 0.16-0.082 0.21-0.23 0.13-0.378-0.047-0.080-5.020-5.11-5.133-5.188-0.098-0.067-0.235-0.058-0.325 0.023z"></path>
<path d="M9.613 22.892c-0.068 0.017-0.152 0.098-0.185 0.177-0.025 0.067-0.095 0.323-0.902 3.405-0.223 0.845-0.515 1.962-0.652 2.485-0.3 1.137-0.305 1.155-0.258 1.242 0.082 0.16 0.23 0.21 0.378 0.128 0.080-0.045 5.11-5.017 5.187-5.13 0.068-0.098 0.057-0.235-0.023-0.325-0.063-0.067-0.158-0.1-0.998-0.34l-0.928-0.265-0.672-0.65c-0.37-0.358-0.695-0.665-0.723-0.683-0.063-0.040-0.16-0.060-0.225-0.045z"></path>
<path d="M20.1 24.32c-0.047 0.025-0.435 0.238-0.863 0.473l-0.775 0.427-0.95 0.017c-0.683 0.012-0.97 0.025-1.025 0.047-0.098 0.043-0.163 0.14-0.163 0.247 0 0.065 0.395 0.76 1.815 3.195 1.163 1.992 1.845 3.14 1.902 3.195 0.078 0.073 0.1 0.082 0.188 0.070 0.117-0.015 0.21-0.093 0.242-0.203 0.012-0.045 0.030-1.545 0.040-3.683 0.017-3.977 0.027-3.71-0.137-3.795-0.095-0.050-0.17-0.047-0.275 0.008z"></path>
</symbol>
<symbol id="icon-moon" viewBox="0 0 26 32">
<path d="M15.037 0.028c-1.85 0.115-3.672 0.547-5.362 1.272-0.71 0.302-2.043 1.017-2.463 1.32-0.055 0.038-0.27 0.192-0.478 0.34-0.447 0.315-0.915 0.688-1.303 1.030-0.407 0.36-0.938 0.86-0.995 0.938-0.027 0.037-0.157 0.185-0.287 0.327-3.058 3.355-4.537 7.882-4.060 12.42 0.383 3.648 1.99 7.023 4.588 9.622 1.663 1.663 3.572 2.89 5.787 3.715 1.015 0.378 2.162 0.67 3.26 0.825 0.853 0.12 1.275 0.148 2.25 0.148 0.935 0.003 1.298-0.020 2.025-0.113 0.212-0.027 0.455-0.058 0.538-0.063 0.082-0.008 0.302-0.047 0.488-0.087 1.768-0.4 2.742-0.733 4.063-1.385 0.965-0.477 1.68-0.915 2.5-1.53 0.652-0.49 0.712-0.558 0.593-0.677-0.043-0.043-0.108-0.050-0.582-0.063-4.355-0.128-8.465-2.098-11.363-5.442-2.96-3.42-4.293-8.015-3.633-12.525 0.545-3.735 2.422-7.135 5.31-9.623 0.29-0.25 0.288-0.245 0.288-0.33 0-0.13-0.055-0.147-0.465-0.145-0.205 0.003-0.518 0.015-0.697 0.025z"></path>
</symbol>
</defs>
</svg>
